M48
;DRILL file {KiCad 4.0.0-2.201511301920+6191~38~ubuntu14.04.1-stable} date Fri 11 Mar 2016 15:08:52 AEDT
;FORMAT={-:-/ absolute / inch / decimal}
FMAT,2
INCH,TZ
T1C0.016
T2C0.020
T3C0.024
T4C0.031
T5C0.039
T6C0.040
%
G90
G05
M72
T1
X6.4764Y-2.9134
X6.4764Y-3.7697
X6.6535Y-3.3169
X6.8504Y-3.0118
X6.9094Y-2.9528
X6.9094Y-3.3071
X6.9094Y-3.5236
X6.9094Y-3.7008
X6.9291Y-4.1339
X6.9291Y-4.4094
X6.9488Y-3.1102
X6.9685Y-2.8937
X7.0079Y-3.0512
X7.0276Y-2.8346
X7.0669Y-2.9921
X7.126Y-2.9331
X7.1949Y-2.4213
X7.2244Y-4.1339
X7.2244Y-4.4094
X7.2343Y-2.4803
X7.2736Y-2.5197
X7.3031Y-2.5689
X7.3524Y-2.5984
X7.3819Y-4.1339
X7.4803Y-4.0354
X7.5Y-4.2323
X7.5Y-4.4094
X7.5984Y-4.1339
X7.6772Y-3.6457
X7.7953Y-4.4094
X8.0807Y-2.9528
X8.0807Y-3.1398
X8.0807Y-3.2776
X8.0807Y-3.3858
X8.0807Y-3.622
X8.0807Y-4.0551
X8.1299Y-2.5295
X8.2677Y-2.6772
X8.2677Y-2.9528
X8.2677Y-3.1398
X8.2677Y-3.2776
X8.2677Y-3.3858
X8.2677Y-3.622
X8.2677Y-3.878
X8.6024Y-2.5591
X8.6024Y-4.2421
X8.6614Y-4.7539
X9.0354Y-2.5591
T2
X6.4744Y-2.4094
X6.5744Y-2.5094
X6.6744Y-2.4094
T3
X6.0039Y-4.0339
X6.0039Y-4.0839
X6.0039Y-4.1339
T4
X6.1913Y-3.3276
X6.1913Y-3.4276
X6.1913Y-3.5276
X6.1913Y-3.6276
X6.1913Y-3.7276
X6.1913Y-3.8276
X6.1913Y-3.9276
X6.1913Y-4.0276
X6.1913Y-4.1276
X6.1913Y-4.2276
X6.1913Y-4.3276
X6.1913Y-4.4276
X6.1913Y-4.5276
X6.1913Y-4.6276
X6.3929Y-2.7559
X6.3929Y-3.0559
X6.4929Y-2.7559
X6.4929Y-3.0559
X6.5929Y-2.7559
X6.5929Y-3.0559
X6.6929Y-2.7559
X6.6929Y-3.0559
X6.7913Y-3.3276
X6.7913Y-3.4276
X6.7913Y-3.5276
X6.7913Y-3.6276
X6.7913Y-3.7276
X6.7913Y-3.8276
X6.7913Y-3.9276
X6.7913Y-4.0276
X6.7913Y-4.1276
X6.7913Y-4.2276
X6.7913Y-4.3276
X6.7913Y-4.4276
X6.7913Y-4.5276
X6.7913Y-4.6276
X7.4346Y-2.8248
X7.4346Y-2.9248
X7.4346Y-3.0248
X7.4346Y-3.1248
X7.4346Y-3.2248
X7.4346Y-3.3248
X7.4346Y-3.4248
X7.4346Y-3.5248
X7.4346Y-3.6248
X7.4346Y-3.7248
X7.4346Y-3.8248
X7.4346Y-3.9248
X7.8346Y-2.8248
X7.8346Y-2.9248
X7.8346Y-3.0248
X7.8346Y-3.1248
X7.8346Y-3.2248
X7.8346Y-3.3248
X7.8346Y-3.4248
X7.8346Y-3.5248
X7.8346Y-3.6248
X7.8346Y-3.7248
X7.8346Y-3.8248
X7.8346Y-3.9248
T6
X5.6102Y-4.0339
X5.6102Y-4.1339
X5.6102Y-4.4276
X5.6102Y-4.5276
T5
X5.5985Y-2.8347G85X5.5985Y-2.9134
G05
X5.5985Y-3.4252G85X5.5985Y-3.5039
G05
X5.6772Y-3.059G85X5.7559Y-3.059
G05
X5.6772Y-3.6496G85X5.7559Y-3.6496
G05
X5.8347Y-2.8347G85X5.8347Y-2.9134
G05
X5.8347Y-3.4252G85X5.8347Y-3.5039
G05
T0
M30
