G04 #@! TF.FileFunction,Soldermask,Top*
%FSLAX46Y46*%
G04 Gerber Fmt 4.6, Leading zero omitted, Abs format (unit mm)*
G04 Created by KiCad (PCBNEW 4.0.0-2.201511301920+6191~38~ubuntu14.04.1-stable) date Fri 11 Mar 2016 15:08:48 AEDT*
%MOMM*%
G01*
G04 APERTURE LIST*
%ADD10C,0.100000*%
%ADD11R,1.500000X1.250000*%
%ADD12R,3.500120X3.500120*%
%ADD13R,1.198880X1.198880*%
%ADD14R,2.032000X2.032000*%
%ADD15O,2.032000X2.032000*%
%ADD16R,0.800100X1.800860*%
%ADD17R,1.500000X1.300000*%
%ADD18C,1.510000*%
%ADD19R,1.510000X1.510000*%
%ADD20C,1.900000*%
%ADD21O,1.600000X1.600000*%
%ADD22O,1.501140X0.899160*%
%ADD23C,0.600000*%
G04 APERTURE END LIST*
D10*
D11*
X163750000Y-115000000D03*
X166250000Y-115000000D03*
X163750000Y-110000000D03*
X166250000Y-110000000D03*
X163750000Y-105000000D03*
X166250000Y-105000000D03*
X163750000Y-100000000D03*
X166250000Y-100000000D03*
D12*
X148200140Y-73000000D03*
X142200660Y-73000000D03*
X145200400Y-77699000D03*
X148200140Y-88000000D03*
X142200660Y-88000000D03*
X145200400Y-92699000D03*
D13*
X180549020Y-118500000D03*
X178450980Y-118500000D03*
X188549020Y-118250000D03*
X186450980Y-118250000D03*
X195799020Y-118500000D03*
X193700980Y-118500000D03*
D14*
X142500000Y-105000000D03*
D15*
X142500000Y-102460000D03*
D16*
X153350000Y-79898860D03*
X151450000Y-79898860D03*
X152400000Y-82901140D03*
D17*
X178600000Y-115000000D03*
X175900000Y-115000000D03*
X186350000Y-115000000D03*
X183650000Y-115000000D03*
X193350000Y-114750000D03*
X190650000Y-114750000D03*
D18*
X169530000Y-61200000D03*
D19*
X164450000Y-61200000D03*
D18*
X166990000Y-63740000D03*
D20*
X172500000Y-115000000D03*
X172500000Y-112460000D03*
X172500000Y-109920000D03*
X172500000Y-107380000D03*
X172500000Y-104840000D03*
X172500000Y-102300000D03*
X172500000Y-99760000D03*
X172500000Y-97220000D03*
X172500000Y-94680000D03*
X172500000Y-92140000D03*
X172500000Y-89600000D03*
X172500000Y-87060000D03*
X172500000Y-84520000D03*
X157260000Y-84520000D03*
X157260000Y-87060000D03*
X157260000Y-89600000D03*
X157260000Y-92140000D03*
X157260000Y-94680000D03*
X157260000Y-97220000D03*
X157260000Y-99760000D03*
X157260000Y-102300000D03*
X157260000Y-104840000D03*
X157260000Y-107380000D03*
X157260000Y-109920000D03*
X157260000Y-112460000D03*
X157260000Y-115000000D03*
X157260000Y-117540000D03*
X172500000Y-117540000D03*
D21*
X170000000Y-70000000D03*
X167460000Y-70000000D03*
X164920000Y-70000000D03*
X162380000Y-70000000D03*
X162380000Y-77620000D03*
X164920000Y-77620000D03*
X167460000Y-77620000D03*
X170000000Y-77620000D03*
X199000000Y-71750000D03*
X199000000Y-74290000D03*
X199000000Y-76830000D03*
X199000000Y-79370000D03*
X199000000Y-81910000D03*
X199000000Y-84450000D03*
X199000000Y-86990000D03*
X199000000Y-89530000D03*
X199000000Y-92070000D03*
X199000000Y-94610000D03*
X199000000Y-97150000D03*
X199000000Y-99690000D03*
X188840000Y-99690000D03*
X188840000Y-97150000D03*
X188840000Y-94610000D03*
X188840000Y-92070000D03*
X188840000Y-89530000D03*
X188840000Y-86990000D03*
X188840000Y-84450000D03*
X188840000Y-81910000D03*
X188840000Y-79370000D03*
X188840000Y-76830000D03*
X188840000Y-74290000D03*
X188840000Y-71750000D03*
D22*
X152500000Y-103730000D03*
X152500000Y-102460000D03*
X152500000Y-105000000D03*
D14*
X142500000Y-115000000D03*
D15*
X142500000Y-112460000D03*
D23*
X229500000Y-65000000D03*
X218500000Y-65000000D03*
X164500000Y-74000000D03*
X164500000Y-95750000D03*
X169000000Y-84250000D03*
X205250000Y-103000000D03*
X205250000Y-92000000D03*
X205250000Y-86000000D03*
X205250000Y-83250000D03*
X205250000Y-79750000D03*
X205250000Y-75000000D03*
X206500000Y-64250000D03*
X210000000Y-68000000D03*
X210000000Y-75000000D03*
X210000000Y-79750000D03*
X210000000Y-83250000D03*
X210000000Y-86000000D03*
X210000000Y-92000000D03*
X210000000Y-98500000D03*
X176000000Y-105000000D03*
X183500000Y-105000000D03*
X187500000Y-105000000D03*
X190000000Y-102500000D03*
X193000000Y-105000000D03*
X190500000Y-107500000D03*
X198000000Y-112000000D03*
X190500000Y-112000000D03*
X183500000Y-112000000D03*
X176000000Y-112000000D03*
X175500000Y-94000000D03*
X175500000Y-89500000D03*
X175500000Y-84000000D03*
X176500000Y-79000000D03*
X178000000Y-77500000D03*
X179500000Y-76000000D03*
X181000000Y-74500000D03*
X178500000Y-72000000D03*
X177000000Y-73500000D03*
X175500000Y-75000000D03*
X174000000Y-76500000D03*
X195000000Y-92600000D03*
X218500000Y-107750000D03*
X220000000Y-120750000D03*
X186750000Y-66000000D03*
X185500000Y-65250000D03*
X184750000Y-64000000D03*
X183750000Y-63000000D03*
X182750000Y-61500000D03*
M02*
