G04 #@! TF.FileFunction,Legend,Top*
%FSLAX46Y46*%
G04 Gerber Fmt 4.6, Leading zero omitted, Abs format (unit mm)*
G04 Created by KiCad (PCBNEW 4.0.0-2.201511301920+6191~38~ubuntu14.04.1-stable) date Fri 11 Mar 2016 15:08:48 AEDT*
%MOMM*%
G01*
G04 APERTURE LIST*
%ADD10C,0.100000*%
%ADD11C,0.300000*%
%ADD12C,0.150000*%
G04 APERTURE END LIST*
D10*
D11*
X174821429Y-62678571D02*
X173964286Y-62678571D01*
X174392858Y-62678571D02*
X174392858Y-61178571D01*
X174250001Y-61392857D01*
X174107143Y-61535714D01*
X173964286Y-61607143D01*
X175464286Y-62678571D02*
X175464286Y-61178571D01*
X175607143Y-62107143D02*
X176035714Y-62678571D01*
X176035714Y-61678571D02*
X175464286Y-62250000D01*
D12*
X165500000Y-114150000D02*
X164500000Y-114150000D01*
X164500000Y-115850000D02*
X165500000Y-115850000D01*
X165500000Y-109150000D02*
X164500000Y-109150000D01*
X164500000Y-110850000D02*
X165500000Y-110850000D01*
X165500000Y-104150000D02*
X164500000Y-104150000D01*
X164500000Y-105850000D02*
X165500000Y-105850000D01*
X165500000Y-99150000D02*
X164500000Y-99150000D01*
X164500000Y-100850000D02*
X165500000Y-100850000D01*
X137999500Y-68499120D02*
X137999500Y-77500880D01*
X134499380Y-68499120D02*
X134499380Y-77500880D01*
X134499380Y-77500880D02*
X149000240Y-77500880D01*
X149000240Y-77500880D02*
X149000240Y-68499120D01*
X149000240Y-68499120D02*
X134499380Y-68499120D01*
X137999500Y-83499120D02*
X137999500Y-92500880D01*
X134499380Y-83499120D02*
X134499380Y-92500880D01*
X134499380Y-92500880D02*
X149000240Y-92500880D01*
X149000240Y-92500880D02*
X149000240Y-83499120D01*
X149000240Y-83499120D02*
X134499380Y-83499120D01*
X177900000Y-119250000D02*
X180600000Y-119250000D01*
X177900000Y-117750000D02*
X180600000Y-117750000D01*
X179400000Y-118650000D02*
X179400000Y-118400000D01*
X179400000Y-118400000D02*
X179250000Y-118550000D01*
X179150000Y-118150000D02*
X179150000Y-118850000D01*
X179500000Y-118500000D02*
X179850000Y-118500000D01*
X179150000Y-118500000D02*
X179500000Y-118150000D01*
X179500000Y-118150000D02*
X179500000Y-118850000D01*
X179500000Y-118850000D02*
X179150000Y-118500000D01*
X185900000Y-119000000D02*
X188600000Y-119000000D01*
X185900000Y-117500000D02*
X188600000Y-117500000D01*
X187400000Y-118400000D02*
X187400000Y-118150000D01*
X187400000Y-118150000D02*
X187250000Y-118300000D01*
X187150000Y-117900000D02*
X187150000Y-118600000D01*
X187500000Y-118250000D02*
X187850000Y-118250000D01*
X187150000Y-118250000D02*
X187500000Y-117900000D01*
X187500000Y-117900000D02*
X187500000Y-118600000D01*
X187500000Y-118600000D02*
X187150000Y-118250000D01*
X193150000Y-119250000D02*
X195850000Y-119250000D01*
X193150000Y-117750000D02*
X195850000Y-117750000D01*
X194650000Y-118650000D02*
X194650000Y-118400000D01*
X194650000Y-118400000D02*
X194500000Y-118550000D01*
X194400000Y-118150000D02*
X194400000Y-118850000D01*
X194750000Y-118500000D02*
X195100000Y-118500000D01*
X194400000Y-118500000D02*
X194750000Y-118150000D01*
X194750000Y-118150000D02*
X194750000Y-118850000D01*
X194750000Y-118850000D02*
X194400000Y-118500000D01*
X143800000Y-106550000D02*
X143800000Y-105000000D01*
X142500000Y-106550000D02*
X143800000Y-106550000D01*
X138309000Y-105127000D02*
X132467000Y-105127000D01*
X132467000Y-105127000D02*
X132467000Y-104873000D01*
X132467000Y-104873000D02*
X138309000Y-104873000D01*
X138309000Y-104873000D02*
X138309000Y-105000000D01*
X138309000Y-105000000D02*
X132467000Y-105000000D01*
X140976000Y-105254000D02*
X141357000Y-105254000D01*
X140976000Y-104746000D02*
X141357000Y-104746000D01*
X140976000Y-102714000D02*
X141357000Y-102714000D01*
X140976000Y-102206000D02*
X141357000Y-102206000D01*
X140976000Y-106270000D02*
X138436000Y-106270000D01*
X140976000Y-103730000D02*
X138436000Y-103730000D01*
X140976000Y-103730000D02*
X140976000Y-101190000D01*
X140976000Y-101190000D02*
X138436000Y-101190000D01*
X138436000Y-102714000D02*
X132340000Y-102714000D01*
X132340000Y-102714000D02*
X132340000Y-102206000D01*
X132340000Y-102206000D02*
X138436000Y-102206000D01*
X138436000Y-101190000D02*
X138436000Y-103730000D01*
X138436000Y-103730000D02*
X138436000Y-106270000D01*
X132340000Y-104746000D02*
X138436000Y-104746000D01*
X132340000Y-105254000D02*
X132340000Y-104746000D01*
X138436000Y-105254000D02*
X132340000Y-105254000D01*
X140976000Y-103730000D02*
X138436000Y-103730000D01*
X140976000Y-106270000D02*
X140976000Y-103730000D01*
X153899820Y-81349200D02*
X153899820Y-82050240D01*
X153899820Y-82050240D02*
X153650900Y-82050240D01*
X151100840Y-82050240D02*
X150900180Y-82050240D01*
X150900180Y-82050240D02*
X150900180Y-81349200D01*
X176650000Y-114125000D02*
X177850000Y-114125000D01*
X177850000Y-115875000D02*
X176650000Y-115875000D01*
X184400000Y-114125000D02*
X185600000Y-114125000D01*
X185600000Y-115875000D02*
X184400000Y-115875000D01*
X191400000Y-113875000D02*
X192600000Y-113875000D01*
X192600000Y-115625000D02*
X191400000Y-115625000D01*
X165290000Y-59945000D02*
X168690000Y-59945000D01*
X165290000Y-60705000D02*
X168690000Y-60705000D01*
X162225000Y-56435000D02*
X171755000Y-56435000D01*
X171755000Y-56435000D02*
X171755000Y-65965000D01*
X171755000Y-65965000D02*
X162225000Y-65965000D01*
X162225000Y-65965000D02*
X162225000Y-56435000D01*
X168791735Y-60325000D02*
G75*
G03X168791735Y-60325000I-1801735J0D01*
G01*
X159800000Y-117540000D02*
X159800000Y-87060000D01*
X159800000Y-87060000D02*
X169960000Y-87060000D01*
X169960000Y-87060000D02*
X169960000Y-117540000D01*
X169960000Y-117540000D02*
X159800000Y-117540000D01*
X172295000Y-70135000D02*
X171025000Y-70135000D01*
X172295000Y-77485000D02*
X171025000Y-77485000D01*
X160085000Y-77485000D02*
X161355000Y-77485000D01*
X160085000Y-70135000D02*
X161355000Y-70135000D01*
X172295000Y-70135000D02*
X172295000Y-77485000D01*
X160085000Y-70135000D02*
X160085000Y-77485000D01*
X171025000Y-70135000D02*
X171025000Y-69200000D01*
X154200000Y-105430000D02*
X154200000Y-102030000D01*
X154197056Y-105427056D02*
G75*
G02X150100000Y-103730000I-1697056J1697056D01*
G01*
X154197056Y-102032944D02*
G75*
G03X150100000Y-103730000I-1697056J-1697056D01*
G01*
X143800000Y-116550000D02*
X143800000Y-115000000D01*
X142500000Y-116550000D02*
X143800000Y-116550000D01*
X138309000Y-115127000D02*
X132467000Y-115127000D01*
X132467000Y-115127000D02*
X132467000Y-114873000D01*
X132467000Y-114873000D02*
X138309000Y-114873000D01*
X138309000Y-114873000D02*
X138309000Y-115000000D01*
X138309000Y-115000000D02*
X132467000Y-115000000D01*
X140976000Y-115254000D02*
X141357000Y-115254000D01*
X140976000Y-114746000D02*
X141357000Y-114746000D01*
X140976000Y-112714000D02*
X141357000Y-112714000D01*
X140976000Y-112206000D02*
X141357000Y-112206000D01*
X140976000Y-116270000D02*
X138436000Y-116270000D01*
X140976000Y-113730000D02*
X138436000Y-113730000D01*
X140976000Y-113730000D02*
X140976000Y-111190000D01*
X140976000Y-111190000D02*
X138436000Y-111190000D01*
X138436000Y-112714000D02*
X132340000Y-112714000D01*
X132340000Y-112714000D02*
X132340000Y-112206000D01*
X132340000Y-112206000D02*
X138436000Y-112206000D01*
X138436000Y-111190000D02*
X138436000Y-113730000D01*
X138436000Y-113730000D02*
X138436000Y-116270000D01*
X132340000Y-114746000D02*
X138436000Y-114746000D01*
X132340000Y-115254000D02*
X132340000Y-114746000D01*
X138436000Y-115254000D02*
X132340000Y-115254000D01*
X140976000Y-113730000D02*
X138436000Y-113730000D01*
X140976000Y-116270000D02*
X140976000Y-113730000D01*
X164833334Y-113257143D02*
X164785715Y-113304762D01*
X164642858Y-113352381D01*
X164547620Y-113352381D01*
X164404762Y-113304762D01*
X164309524Y-113209524D01*
X164261905Y-113114286D01*
X164214286Y-112923810D01*
X164214286Y-112780952D01*
X164261905Y-112590476D01*
X164309524Y-112495238D01*
X164404762Y-112400000D01*
X164547620Y-112352381D01*
X164642858Y-112352381D01*
X164785715Y-112400000D01*
X164833334Y-112447619D01*
X165166667Y-112352381D02*
X165785715Y-112352381D01*
X165452381Y-112733333D01*
X165595239Y-112733333D01*
X165690477Y-112780952D01*
X165738096Y-112828571D01*
X165785715Y-112923810D01*
X165785715Y-113161905D01*
X165738096Y-113257143D01*
X165690477Y-113304762D01*
X165595239Y-113352381D01*
X165309524Y-113352381D01*
X165214286Y-113304762D01*
X165166667Y-113257143D01*
X164833334Y-108257143D02*
X164785715Y-108304762D01*
X164642858Y-108352381D01*
X164547620Y-108352381D01*
X164404762Y-108304762D01*
X164309524Y-108209524D01*
X164261905Y-108114286D01*
X164214286Y-107923810D01*
X164214286Y-107780952D01*
X164261905Y-107590476D01*
X164309524Y-107495238D01*
X164404762Y-107400000D01*
X164547620Y-107352381D01*
X164642858Y-107352381D01*
X164785715Y-107400000D01*
X164833334Y-107447619D01*
X165690477Y-107685714D02*
X165690477Y-108352381D01*
X165452381Y-107304762D02*
X165214286Y-108019048D01*
X165833334Y-108019048D01*
X164833334Y-103257143D02*
X164785715Y-103304762D01*
X164642858Y-103352381D01*
X164547620Y-103352381D01*
X164404762Y-103304762D01*
X164309524Y-103209524D01*
X164261905Y-103114286D01*
X164214286Y-102923810D01*
X164214286Y-102780952D01*
X164261905Y-102590476D01*
X164309524Y-102495238D01*
X164404762Y-102400000D01*
X164547620Y-102352381D01*
X164642858Y-102352381D01*
X164785715Y-102400000D01*
X164833334Y-102447619D01*
X165738096Y-102352381D02*
X165261905Y-102352381D01*
X165214286Y-102828571D01*
X165261905Y-102780952D01*
X165357143Y-102733333D01*
X165595239Y-102733333D01*
X165690477Y-102780952D01*
X165738096Y-102828571D01*
X165785715Y-102923810D01*
X165785715Y-103161905D01*
X165738096Y-103257143D01*
X165690477Y-103304762D01*
X165595239Y-103352381D01*
X165357143Y-103352381D01*
X165261905Y-103304762D01*
X165214286Y-103257143D01*
X164833334Y-98257143D02*
X164785715Y-98304762D01*
X164642858Y-98352381D01*
X164547620Y-98352381D01*
X164404762Y-98304762D01*
X164309524Y-98209524D01*
X164261905Y-98114286D01*
X164214286Y-97923810D01*
X164214286Y-97780952D01*
X164261905Y-97590476D01*
X164309524Y-97495238D01*
X164404762Y-97400000D01*
X164547620Y-97352381D01*
X164642858Y-97352381D01*
X164785715Y-97400000D01*
X164833334Y-97447619D01*
X165690477Y-97352381D02*
X165500000Y-97352381D01*
X165404762Y-97400000D01*
X165357143Y-97447619D01*
X165261905Y-97590476D01*
X165214286Y-97780952D01*
X165214286Y-98161905D01*
X165261905Y-98257143D01*
X165309524Y-98304762D01*
X165404762Y-98352381D01*
X165595239Y-98352381D01*
X165690477Y-98304762D01*
X165738096Y-98257143D01*
X165785715Y-98161905D01*
X165785715Y-97923810D01*
X165738096Y-97828571D01*
X165690477Y-97780952D01*
X165595239Y-97733333D01*
X165404762Y-97733333D01*
X165309524Y-97780952D01*
X165261905Y-97828571D01*
X165214286Y-97923810D01*
X152456183Y-74214285D02*
X152503802Y-74261904D01*
X152551421Y-74404761D01*
X152551421Y-74499999D01*
X152503802Y-74642857D01*
X152408564Y-74738095D01*
X152313326Y-74785714D01*
X152122850Y-74833333D01*
X151979992Y-74833333D01*
X151789516Y-74785714D01*
X151694278Y-74738095D01*
X151599040Y-74642857D01*
X151551421Y-74499999D01*
X151551421Y-74404761D01*
X151599040Y-74261904D01*
X151646659Y-74214285D01*
X151551421Y-73595238D02*
X151551421Y-73404761D01*
X151599040Y-73309523D01*
X151694278Y-73214285D01*
X151884754Y-73166666D01*
X152218088Y-73166666D01*
X152408564Y-73214285D01*
X152503802Y-73309523D01*
X152551421Y-73404761D01*
X152551421Y-73595238D01*
X152503802Y-73690476D01*
X152408564Y-73785714D01*
X152218088Y-73833333D01*
X151884754Y-73833333D01*
X151694278Y-73785714D01*
X151599040Y-73690476D01*
X151551421Y-73595238D01*
X152551421Y-72738095D02*
X151551421Y-72738095D01*
X152551421Y-72166666D01*
X151551421Y-72166666D01*
X152551421Y-71166666D02*
X152551421Y-71738095D01*
X152551421Y-71452381D02*
X151551421Y-71452381D01*
X151694278Y-71547619D01*
X151789516Y-71642857D01*
X151837135Y-71738095D01*
X152456183Y-89214285D02*
X152503802Y-89261904D01*
X152551421Y-89404761D01*
X152551421Y-89499999D01*
X152503802Y-89642857D01*
X152408564Y-89738095D01*
X152313326Y-89785714D01*
X152122850Y-89833333D01*
X151979992Y-89833333D01*
X151789516Y-89785714D01*
X151694278Y-89738095D01*
X151599040Y-89642857D01*
X151551421Y-89499999D01*
X151551421Y-89404761D01*
X151599040Y-89261904D01*
X151646659Y-89214285D01*
X151551421Y-88595238D02*
X151551421Y-88404761D01*
X151599040Y-88309523D01*
X151694278Y-88214285D01*
X151884754Y-88166666D01*
X152218088Y-88166666D01*
X152408564Y-88214285D01*
X152503802Y-88309523D01*
X152551421Y-88404761D01*
X152551421Y-88595238D01*
X152503802Y-88690476D01*
X152408564Y-88785714D01*
X152218088Y-88833333D01*
X151884754Y-88833333D01*
X151694278Y-88785714D01*
X151599040Y-88690476D01*
X151551421Y-88595238D01*
X152551421Y-87738095D02*
X151551421Y-87738095D01*
X152551421Y-87166666D01*
X151551421Y-87166666D01*
X151646659Y-86738095D02*
X151599040Y-86690476D01*
X151551421Y-86595238D01*
X151551421Y-86357142D01*
X151599040Y-86261904D01*
X151646659Y-86214285D01*
X151741897Y-86166666D01*
X151837135Y-86166666D01*
X151979992Y-86214285D01*
X152551421Y-86785714D01*
X152551421Y-86166666D01*
X178761905Y-117202381D02*
X178761905Y-116202381D01*
X179000000Y-116202381D01*
X179142858Y-116250000D01*
X179238096Y-116345238D01*
X179285715Y-116440476D01*
X179333334Y-116630952D01*
X179333334Y-116773810D01*
X179285715Y-116964286D01*
X179238096Y-117059524D01*
X179142858Y-117154762D01*
X179000000Y-117202381D01*
X178761905Y-117202381D01*
X180285715Y-117202381D02*
X179714286Y-117202381D01*
X180000000Y-117202381D02*
X180000000Y-116202381D01*
X179904762Y-116345238D01*
X179809524Y-116440476D01*
X179714286Y-116488095D01*
X186761905Y-116952381D02*
X186761905Y-115952381D01*
X187000000Y-115952381D01*
X187142858Y-116000000D01*
X187238096Y-116095238D01*
X187285715Y-116190476D01*
X187333334Y-116380952D01*
X187333334Y-116523810D01*
X187285715Y-116714286D01*
X187238096Y-116809524D01*
X187142858Y-116904762D01*
X187000000Y-116952381D01*
X186761905Y-116952381D01*
X187714286Y-116047619D02*
X187761905Y-116000000D01*
X187857143Y-115952381D01*
X188095239Y-115952381D01*
X188190477Y-116000000D01*
X188238096Y-116047619D01*
X188285715Y-116142857D01*
X188285715Y-116238095D01*
X188238096Y-116380952D01*
X187666667Y-116952381D01*
X188285715Y-116952381D01*
X194011905Y-117202381D02*
X194011905Y-116202381D01*
X194250000Y-116202381D01*
X194392858Y-116250000D01*
X194488096Y-116345238D01*
X194535715Y-116440476D01*
X194583334Y-116630952D01*
X194583334Y-116773810D01*
X194535715Y-116964286D01*
X194488096Y-117059524D01*
X194392858Y-117154762D01*
X194250000Y-117202381D01*
X194011905Y-117202381D01*
X194916667Y-116202381D02*
X195535715Y-116202381D01*
X195202381Y-116583333D01*
X195345239Y-116583333D01*
X195440477Y-116630952D01*
X195488096Y-116678571D01*
X195535715Y-116773810D01*
X195535715Y-117011905D01*
X195488096Y-117107143D01*
X195440477Y-117154762D01*
X195345239Y-117202381D01*
X195059524Y-117202381D01*
X194964286Y-117154762D01*
X194916667Y-117107143D01*
X141761905Y-110552381D02*
X141761905Y-109552381D01*
X142142858Y-109552381D01*
X142238096Y-109600000D01*
X142285715Y-109647619D01*
X142333334Y-109742857D01*
X142333334Y-109885714D01*
X142285715Y-109980952D01*
X142238096Y-110028571D01*
X142142858Y-110076190D01*
X141761905Y-110076190D01*
X142714286Y-109647619D02*
X142761905Y-109600000D01*
X142857143Y-109552381D01*
X143095239Y-109552381D01*
X143190477Y-109600000D01*
X143238096Y-109647619D01*
X143285715Y-109742857D01*
X143285715Y-109838095D01*
X143238096Y-109980952D01*
X142666667Y-110552381D01*
X143285715Y-110552381D01*
X151828572Y-85757619D02*
X151733334Y-85710000D01*
X151638096Y-85614762D01*
X151495239Y-85471905D01*
X151400000Y-85424286D01*
X151304762Y-85424286D01*
X151352381Y-85662381D02*
X151257143Y-85614762D01*
X151161905Y-85519524D01*
X151114286Y-85329048D01*
X151114286Y-84995714D01*
X151161905Y-84805238D01*
X151257143Y-84710000D01*
X151352381Y-84662381D01*
X151542858Y-84662381D01*
X151638096Y-84710000D01*
X151733334Y-84805238D01*
X151780953Y-84995714D01*
X151780953Y-85329048D01*
X151733334Y-85519524D01*
X151638096Y-85614762D01*
X151542858Y-85662381D01*
X151352381Y-85662381D01*
X152733334Y-85662381D02*
X152161905Y-85662381D01*
X152447619Y-85662381D02*
X152447619Y-84662381D01*
X152352381Y-84805238D01*
X152257143Y-84900476D01*
X152161905Y-84948095D01*
X153590477Y-84662381D02*
X153400000Y-84662381D01*
X153304762Y-84710000D01*
X153257143Y-84757619D01*
X153161905Y-84900476D01*
X153114286Y-85090952D01*
X153114286Y-85471905D01*
X153161905Y-85567143D01*
X153209524Y-85614762D01*
X153304762Y-85662381D01*
X153495239Y-85662381D01*
X153590477Y-85614762D01*
X153638096Y-85567143D01*
X153685715Y-85471905D01*
X153685715Y-85233810D01*
X153638096Y-85138571D01*
X153590477Y-85090952D01*
X153495239Y-85043333D01*
X153304762Y-85043333D01*
X153209524Y-85090952D01*
X153161905Y-85138571D01*
X153114286Y-85233810D01*
X177083334Y-117552381D02*
X176750000Y-117076190D01*
X176511905Y-117552381D02*
X176511905Y-116552381D01*
X176892858Y-116552381D01*
X176988096Y-116600000D01*
X177035715Y-116647619D01*
X177083334Y-116742857D01*
X177083334Y-116885714D01*
X177035715Y-116980952D01*
X176988096Y-117028571D01*
X176892858Y-117076190D01*
X176511905Y-117076190D01*
X177416667Y-116552381D02*
X178035715Y-116552381D01*
X177702381Y-116933333D01*
X177845239Y-116933333D01*
X177940477Y-116980952D01*
X177988096Y-117028571D01*
X178035715Y-117123810D01*
X178035715Y-117361905D01*
X177988096Y-117457143D01*
X177940477Y-117504762D01*
X177845239Y-117552381D01*
X177559524Y-117552381D01*
X177464286Y-117504762D01*
X177416667Y-117457143D01*
X184833334Y-117552381D02*
X184500000Y-117076190D01*
X184261905Y-117552381D02*
X184261905Y-116552381D01*
X184642858Y-116552381D01*
X184738096Y-116600000D01*
X184785715Y-116647619D01*
X184833334Y-116742857D01*
X184833334Y-116885714D01*
X184785715Y-116980952D01*
X184738096Y-117028571D01*
X184642858Y-117076190D01*
X184261905Y-117076190D01*
X185690477Y-116885714D02*
X185690477Y-117552381D01*
X185452381Y-116504762D02*
X185214286Y-117219048D01*
X185833334Y-117219048D01*
X191833334Y-117302381D02*
X191500000Y-116826190D01*
X191261905Y-117302381D02*
X191261905Y-116302381D01*
X191642858Y-116302381D01*
X191738096Y-116350000D01*
X191785715Y-116397619D01*
X191833334Y-116492857D01*
X191833334Y-116635714D01*
X191785715Y-116730952D01*
X191738096Y-116778571D01*
X191642858Y-116826190D01*
X191261905Y-116826190D01*
X192738096Y-116302381D02*
X192261905Y-116302381D01*
X192214286Y-116778571D01*
X192261905Y-116730952D01*
X192357143Y-116683333D01*
X192595239Y-116683333D01*
X192690477Y-116730952D01*
X192738096Y-116778571D01*
X192785715Y-116873810D01*
X192785715Y-117111905D01*
X192738096Y-117207143D01*
X192690477Y-117254762D01*
X192595239Y-117302381D01*
X192357143Y-117302381D01*
X192261905Y-117254762D01*
X192214286Y-117207143D01*
X166394762Y-55810381D02*
X166061428Y-55334190D01*
X165823333Y-55810381D02*
X165823333Y-54810381D01*
X166204286Y-54810381D01*
X166299524Y-54858000D01*
X166347143Y-54905619D01*
X166394762Y-55000857D01*
X166394762Y-55143714D01*
X166347143Y-55238952D01*
X166299524Y-55286571D01*
X166204286Y-55334190D01*
X165823333Y-55334190D01*
X166680476Y-54810381D02*
X167013809Y-55810381D01*
X167347143Y-54810381D01*
X168204286Y-55810381D02*
X167632857Y-55810381D01*
X167918571Y-55810381D02*
X167918571Y-54810381D01*
X167823333Y-54953238D01*
X167728095Y-55048476D01*
X167632857Y-55096095D01*
X163737143Y-119258571D02*
X163737143Y-120472857D01*
X163808571Y-120615714D01*
X163880000Y-120687143D01*
X164022857Y-120758571D01*
X164308571Y-120758571D01*
X164451429Y-120687143D01*
X164522857Y-120615714D01*
X164594286Y-120472857D01*
X164594286Y-119258571D01*
X166094286Y-120758571D02*
X165237143Y-120758571D01*
X165665715Y-120758571D02*
X165665715Y-119258571D01*
X165522858Y-119472857D01*
X165380000Y-119615714D01*
X165237143Y-119687143D01*
X174672381Y-70761905D02*
X175481905Y-70761905D01*
X175577143Y-70714286D01*
X175624762Y-70666667D01*
X175672381Y-70571429D01*
X175672381Y-70380952D01*
X175624762Y-70285714D01*
X175577143Y-70238095D01*
X175481905Y-70190476D01*
X174672381Y-70190476D01*
X174767619Y-69761905D02*
X174720000Y-69714286D01*
X174672381Y-69619048D01*
X174672381Y-69380952D01*
X174720000Y-69285714D01*
X174767619Y-69238095D01*
X174862857Y-69190476D01*
X174958095Y-69190476D01*
X175100952Y-69238095D01*
X175672381Y-69809524D01*
X175672381Y-69190476D01*
X147952381Y-105761905D02*
X148761905Y-105761905D01*
X148857143Y-105714286D01*
X148904762Y-105666667D01*
X148952381Y-105571429D01*
X148952381Y-105380952D01*
X148904762Y-105285714D01*
X148857143Y-105238095D01*
X148761905Y-105190476D01*
X147952381Y-105190476D01*
X148285714Y-104285714D02*
X148952381Y-104285714D01*
X147904762Y-104523810D02*
X148619048Y-104761905D01*
X148619048Y-104142857D01*
X141761905Y-120552381D02*
X141761905Y-119552381D01*
X142142858Y-119552381D01*
X142238096Y-119600000D01*
X142285715Y-119647619D01*
X142333334Y-119742857D01*
X142333334Y-119885714D01*
X142285715Y-119980952D01*
X142238096Y-120028571D01*
X142142858Y-120076190D01*
X141761905Y-120076190D01*
X143285715Y-120552381D02*
X142714286Y-120552381D01*
X143000000Y-120552381D02*
X143000000Y-119552381D01*
X142904762Y-119695238D01*
X142809524Y-119790476D01*
X142714286Y-119838095D01*
M02*
